<svg width="124" height="30" viewBox="0 0 124 30" fill="none" xmlns="http://www.w3.org/2000/svg">
<g clip-path="url(#clip0_2102_3807)">
<path d="M8 0L13.2713 25.8687C13.6833 27.8902 15.9445 28.8708 17.6131 27.6575C23.4686 23.3999 33.5529 14.3251 22.2642 8.82353C10.8704 3.27078 21.2491 18.0776 27.0774 25.7386C28.5047 27.6145 31.399 27.1029 32.157 24.8709L38.0188 7.61145C38.9117 4.98228 42.5896 4.87265 43.6375 7.44397L51.1938 25.9847C51.985 27.9262 54.448 28.4636 55.896 26.9475C61.4957 21.0848 71.6838 8.82353 58.9434 8.82353C45.9951 8.82353 59.7762 21.4881 66.6888 27.2293C68.3241 28.5874 70.7586 27.7634 71.316 25.7121L75.7258 9.48144C76.5021 6.62407 80.5093 6.4996 81.4615 9.30327L86.8652 25.2142C87.5975 27.3705 90.3483 27.9501 91.8389 26.2283C98.4246 18.6212 111.288 2.66862 97.6604 8.82353C83.7028 15.1276 97.5353 23.041 103.949 26.0822C105.501 26.818 107.288 25.987 107.834 24.3588L116 0" stroke="#FFCC00" stroke-width="5" stroke-linecap="square" stroke-linejoin="round"/>
</g>
<defs>
<clipPath id="clip0_2102_3807">
<rect width="124" height="30" fill="white"/>
</clipPath>
</defs>
</svg>
